HIERARCHY
ROOT joint_Root
{
	OFFSET 0.0 0.0 0.0
	CHANNELS 6 Xposition Yposition Zposition Zrotation Xrotation Yrotation 
	JOINT Hips
	{
		OFFSET 4.5925 91.4895 -427.239
		CHANNELS 6 Xposition Yposition Zposition Zrotation Xrotation Yrotation 
		JOINT Spine
		{
			OFFSET 15.7357 0.0 0.0
			CHANNELS 6 Xposition Yposition Zposition Zrotation Xrotation Yrotation 
			JOINT Chest
			{
				OFFSET 8.98455 -0.406207 0.0
				CHANNELS 6 Xposition Yposition Zposition Zrotation Xrotation Yrotation 
				JOINT Neck
				{
					OFFSET 16.3773 0.0 0.0
					CHANNELS 6 Xposition Yposition Zposition Zrotation Xrotation Yrotation 
					JOINT Head
					{
						OFFSET 6.45672 0.0 0.0
						CHANNELS 6 Xposition Yposition Zposition Zrotation Xrotation Yrotation 
						End Site
						{
							OFFSET 0.0 0.0 0.0
						}
					}
				}
				JOINT Shoulder_L
				{
					OFFSET 12.9942 -0.242716 4.98039
					CHANNELS 6 Xposition Yposition Zposition Zrotation Xrotation Yrotation 
					JOINT UpperArm_L
					{
						OFFSET 5.34809 0.0 0.0
						CHANNELS 6 Xposition Yposition Zposition Zrotation Xrotation Yrotation 
						JOINT LowerArm_L
						{
							OFFSET 24.3286 1.87007e-05 0.0
							CHANNELS 6 Xposition Yposition Zposition Zrotation Xrotation Yrotation 
							JOINT Hand_L
							{
								OFFSET 22.2916 0.0 0.0
								CHANNELS 6 Xposition Yposition Zposition Zrotation Xrotation Yrotation 
								End Site
								{
									OFFSET 0.0 0.0 0.0
								}
							}
						}
					}
				}
				JOINT Shoulder_R
				{
					OFFSET 12.9945 -0.242716 -4.98039
					CHANNELS 6 Xposition Yposition Zposition Zrotation Xrotation Yrotation 
					JOINT UpperArm_R
					{
						OFFSET -5.34813 0.0 0.0
						CHANNELS 6 Xposition Yposition Zposition Zrotation Xrotation Yrotation 
						JOINT LowerArm_R
						{
							OFFSET -24.3289 0.000322201 0.0
							CHANNELS 6 Xposition Yposition Zposition Zrotation Xrotation Yrotation 
							JOINT Hand_R
							{
								OFFSET -22.2915 -0.000108084 0.0
								CHANNELS 6 Xposition Yposition Zposition Zrotation Xrotation Yrotation 
								End Site
								{
									OFFSET 0.0 0.0 0.0
								}
							}
						}
					}
				}
			}
		}
		JOINT UpperLeg_L
		{
			OFFSET -2.19248 -6.46944 0.0
			CHANNELS 6 Xposition Yposition Zposition Zrotation Xrotation Yrotation 
			JOINT LowerLeg_L
			{
				OFFSET 39.0811 0.0 -1.23785e-05
				CHANNELS 6 Xposition Yposition Zposition Zrotation Xrotation Yrotation 
				JOINT Foot_L
				{
					OFFSET 40.9854 0.0 -1.26872e-05
					CHANNELS 6 Xposition Yposition Zposition Zrotation Xrotation Yrotation 
					JOINT Toes_L
					{
						OFFSET 11.7543 0.0 0.0
						CHANNELS 6 Xposition Yposition Zposition Zrotation Xrotation Yrotation 
						End Site
						{
							OFFSET 0.0 0.0 0.0
						}
					}
				}
			}
		}
		JOINT UpperLeg_R
		{
			OFFSET -2.19251 6.46944 0.0
			CHANNELS 6 Xposition Yposition Zposition Zrotation Xrotation Yrotation 
			JOINT LowerLeg_R
			{
				OFFSET -39.0811 -0.00228153 -0.0401928
				CHANNELS 6 Xposition Yposition Zposition Zrotation Xrotation Yrotation 
				JOINT Foot_R
				{
					OFFSET -40.9854 0.0 0.0
					CHANNELS 6 Xposition Yposition Zposition Zrotation Xrotation Yrotation 
					JOINT Toes_R
					{
						OFFSET -11.7543 0.0 0.0
						CHANNELS 6 Xposition Yposition Zposition Zrotation Xrotation Yrotation 
						End Site
						{
							OFFSET 0.0 0.0 0.0
						}
					}
				}
			}
		}
	}
}
MOTION
Frames:	4
Frame Time:	0.0333333
0.000000 0.000000 0.000000 0.000000 0.000000 -0.000000 -6.850060 90.221800 -0.923162 85.476300 -5.769680 12.755100 15.735700 0.000005 -0.000001 73.679900 81.921900 -69.178400 8.984550 -0.406207 -0.000000 7.951850 -4.513270 9.312020 16.377300 -0.000001 -0.000001 27.997500 -7.741150 4.596770 6.456720 -0.000001 -0.000000 15.211000 -8.680570 22.265000 12.994200 -0.242716 4.980390 -86.673500 -7.917900 -67.123100 5.348090 -0.000007 -0.000001 -62.099600 -48.215200 -97.587400 24.328600 0.000019 0.000005 13.943000 10.027400 -54.956900 22.291600 -0.000001 0.000005 14.308300 5.415940 -3.462820 12.994500 -0.242716 -4.980390 87.905500 9.993080 -78.098700 -5.348130 -0.000001 -0.000004 -60.730900 31.101300 -7.629420 -24.328900 0.000322 -0.000009 2.457050 7.603480 -17.974900 -22.291500 -0.000108 -0.000004 14.611500 5.418460 -3.547070 -2.192480 -6.469440 -0.000000 -165.186000 -12.014200 2.365640 39.081100 -0.000007 -0.000012 -0.277166 0.416616 33.635600 40.985400 -0.000006 -0.000013 -3.435600 7.621910 -71.517800 11.754300 -0.000000 0.000003 -0.000093 -0.000971 -16.614900 -2.192510 6.469440 -0.000001 179.604000 24.435300 -173.992000 -39.081100 -0.002282 -0.040193 -0.190563 0.344691 29.355100 -40.985400 0.000008 0.000006 8.694550 16.363900 -72.925300 -11.754300 -0.000006 -0.000006 -0.000542 -0.008669 -16.925900
0.000000 0.000000 0.000000 0.000000 0.000000 -0.000000 -6.863790 90.225100 -0.981409 85.505500 -5.785580 12.743500 15.735700 0.000005 -0.000001 73.627700 81.925400 -69.059800 8.984550 -0.406207 -0.000000 7.944610 -4.525560 9.445220 16.377300 -0.000001 -0.000001 27.996300 -7.798740 4.711950 6.456720 -0.000001 -0.000000 15.160600 -8.849900 22.446100 12.994200 -0.242716 4.980390 -86.599100 -8.043820 -66.989400 5.348090 -0.000007 -0.000001 -61.775400 -48.953100 -97.638400 24.328600 0.000019 0.000005 13.969500 10.336100 -54.198600 22.291600 -0.000001 0.000005 14.142900 5.415160 -3.436840 12.994500 -0.242716 -4.980390 87.914900 9.930910 -78.079300 -5.348130 -0.000001 -0.000004 -60.650200 31.071200 -7.761960 -24.328900 0.000322 -0.000009 2.472230 7.638210 -18.002400 -22.291500 -0.000108 -0.000004 14.627800 5.418920 -3.562430 -2.192480 -6.469440 -0.000000 -165.202000 -12.031900 2.309700 39.081100 -0.000007 -0.000012 -0.280513 0.421846 33.623000 40.985400 -0.000006 -0.000013 -3.441930 7.650380 -71.458400 11.754300 -0.000000 0.000003 -0.000088 -0.000925 -16.613100 -2.192510 6.469440 -0.000001 179.640000 24.378200 -174.085000 -39.081100 -0.002282 -0.040193 -0.190264 0.343707 29.387400 -40.985400 0.000008 0.000006 8.704460 16.310300 -72.893300 -11.754300 -0.000006 -0.000006 -0.000626 -0.009950 -16.978000
0.000000 0.000000 0.000000 0.000000 0.000000 -0.000000 -6.880940 90.235700 -1.038160 85.551000 -5.779120 12.746000 15.735700 0.000005 -0.000001 73.583200 81.942500 -68.968100 8.984550 -0.406207 -0.000000 7.910620 -4.529350 9.538550 16.377300 -0.000001 -0.000001 27.985500 -7.849560 4.811060 6.456720 -0.000001 -0.000000 15.153100 -8.990360 22.611100 12.994200 -0.242716 4.980390 -86.527900 -8.172850 -66.887400 5.348090 -0.000007 -0.000001 -61.628300 -49.537600 -97.783200 24.328600 0.000019 0.000005 13.927700 10.605800 -53.418100 22.291600 -0.000001 0.000005 14.151500 5.414760 -3.423440 12.994500 -0.242716 -4.980390 87.915500 9.903750 -78.051100 -5.348130 -0.000001 -0.000004 -60.604400 30.976700 -7.817610 -24.328900 0.000322 -0.000009 2.474230 7.617970 -18.060500 -22.291500 -0.000108 -0.000004 14.643800 5.418820 -3.559530 -2.192480 -6.469440 -0.000000 -165.232000 -12.089400 2.298490 39.081100 -0.000007 -0.000012 -0.275860 0.415698 33.569100 40.985400 -0.000006 -0.000013 -3.442090 7.682710 -71.385200 11.754300 -0.000000 0.000003 -0.000096 -0.000994 -16.615700 -2.192510 6.469440 -0.000001 179.622000 24.392300 -174.119000 -39.081100 -0.002282 -0.040193 -0.190960 0.345095 29.376500 -40.985400 0.000008 0.000006 8.726160 16.315100 -72.861300 -11.754300 -0.000006 -0.000006 -0.000619 -0.009836 -16.973400
0.000000 0.000000 0.000000 0.000000 0.000000 -0.000000 -6.902380 90.241700 -1.073920 85.615100 -5.782760 12.783200 15.735700 0.000005 -0.000001 73.551500 81.943400 -68.900600 8.984550 -0.406207 -0.000000 7.908490 -4.537390 9.610730 16.377300 -0.000001 -0.000001 28.027800 -7.900390 4.876190 6.456720 -0.000001 -0.000000 15.081300 -9.121020 22.742200 12.994200 -0.242716 4.980390 -86.464600 -8.278650 -66.776200 5.348090 -0.000007 -0.000001 -61.564100 -50.073100 -97.968000 24.328600 0.000019 0.000005 13.851700 10.861500 -52.613100 22.291600 -0.000001 0.000005 14.094500 5.413080 -3.367560 12.994500 -0.242716 -4.980390 87.917200 9.893250 -78.048600 -5.348130 -0.000001 -0.000004 -60.501300 30.896500 -7.913020 -24.328900 0.000322 -0.000009 2.444600 7.487610 -18.146900 -22.291500 -0.000108 -0.000004 14.654600 5.417910 -3.528660 -2.192480 -6.469440 -0.000000 -165.281000 -12.087100 2.339620 39.081100 -0.000007 -0.000012 -0.276947 0.418300 33.508200 40.985400 -0.000006 -0.000013 -3.457460 7.680080 -71.330200 11.754300 -0.000000 0.000003 -0.000085 -0.000894 -16.612000 -2.192510 6.469440 -0.000001 179.571000 24.390900 -174.120000 -39.081100 -0.002282 -0.040193 -0.187977 0.339561 29.393400 -40.985400 0.000008 0.000006 8.749500 16.318300 -72.853500 -11.754300 -0.000006 -0.000006 -0.000698 -0.011016 -17.021300
